<?xml version="1.0" encoding="UTF-8"?>
<!DOCTYPE svg PUBLIC "-//W3C//DTD SVG 1.1//EN" "http://www.w3.org/Graphics/SVG/1.1/DTD/svg11.dtd">
<!-- Creator: CorelDRAW (Versión de evaluación) -->
<svg xmlns="http://www.w3.org/2000/svg" xml:space="preserve" width="64px" height="64px" version="1.1" style="shape-rendering:geometricPrecision; text-rendering:geometricPrecision; image-rendering:optimizeQuality; fill-rule:evenodd; clip-rule:evenodd"
viewBox="0 0 64 64"
 xmlns:xlink="http://www.w3.org/1999/xlink"
 xmlns:xodm="http://www.corel.com/coreldraw/odm/2003">
 <defs>
  <style type="text/css">
   <![CDATA[
    .fil1 {fill:#FEFEFE}
    .fil0 {fill:#00AFEF}
   ]]>
  </style>
    <mask id="id0">
  <linearGradient id="id1" gradientUnits="userSpaceOnUse" x1="5.44" y1="12.23" x2="74.16" y2="66.64">
   <stop offset="0" style="stop-opacity:1; stop-color:white"/>
   <stop offset="0.631373" style="stop-opacity:0.501961; stop-color:white"/>
   <stop offset="1" style="stop-opacity:0; stop-color:white"/>
  </linearGradient>
     <rect style="fill:url(#id1)" x="0.3" y="-0.15" width="64" height="64.78"/>
    </mask>
 </defs>
 <g id="Capa_x0020_1">
  <metadata id="CorelCorpID_0Corel-Layer"/>
  <g id="_1640113039968">
   <path class="fil0" style="mask:url(#id0)" d="M13.96 1.03l36.69 0c6.86,0 12.47,5.61 12.47,12.47l0 37.47c0,6.86 -5.61,12.48 -12.47,12.48l-36.69 0c-6.86,0 -12.48,-5.62 -12.48,-12.48l0 -37.47c0,-6.86 5.62,-12.47 12.48,-12.47z"/>
   <g>
    <path class="fil1" d="M18.87 38.34l5.98 0.01 2.91 -4.33c0.57,-0.85 1.14,-1.79 1.91,-1.79l12.31 0.03 -3.05 4.77c-0.55,0.86 -1.13,1.21 -2.11,1.21l-3.54 0c-0.78,0.03 -1.68,-0.17 -2.25,0.76l-2.52 3.69 -0.88 1.31 -1.44 0 -0.21 0 -3.45 0 -0.02 0 -1.46 0 0 0c-2.07,0 -4.26,0 -7.05,0l2.83 -4.1c0.58,-0.84 1.27,-1.56 2.04,-1.56z"/>
    <path class="fil1" d="M30.27 20.88l19.35 -0.09 -2.77 4c-0.58,0.84 -1.12,1.76 -2.11,1.75 -3.6,-0.02 -7.21,-0.05 -10.81,-0.07 -0.99,0.02 -1.62,0.07 -2.27,1.05l-3.01 4.78 -6.77 0.01 6.48 -9.64c0.57,-0.85 1.14,-1.79 1.91,-1.79z"/>
    <path class="fil1" d="M18.87 38.34l5.98 0.01 2.91 -4.33c0.57,-0.85 1.14,-1.79 1.91,-1.79l12.31 0.03 -3.05 4.77c-0.55,0.86 -1.13,1.21 -2.11,1.21l-3.54 0c-0.78,0.03 -1.68,-0.17 -2.25,0.76l-2.52 3.69 -0.88 1.31 -1.44 0 -0.21 0 -3.45 0 -0.02 0 -1.46 0 0 0c-2.07,0 -4.26,0 -7.05,0l2.83 -4.1c0.58,-0.84 1.27,-1.56 2.04,-1.56z"/>
   </g>
  </g>
 </g>
</svg>
