<?xml version="1.0" encoding="UTF-8"?>
<!DOCTYPE svg PUBLIC "-//W3C//DTD SVG 1.1//EN" "http://www.w3.org/Graphics/SVG/1.1/DTD/svg11.dtd">
<!-- Creator: CorelDRAW (Versión de evaluación) -->
<svg xmlns="http://www.w3.org/2000/svg" xml:space="preserve" width="128px" height="128px" version="1.1" style="shape-rendering:geometricPrecision; text-rendering:geometricPrecision; image-rendering:optimizeQuality; fill-rule:evenodd; clip-rule:evenodd"
viewBox="0 0 128 128"
 xmlns:xlink="http://www.w3.org/1999/xlink"
 xmlns:xodm="http://www.corel.com/coreldraw/odm/2003">
 <defs>
  <style type="text/css">
   <![CDATA[
    .fil1 {fill:url(#id0)}
    .fil0 {fill:url(#id1)}
    .fil2 {fill:url(#id2)}
    .fil3 {fill:url(#id3)}
    .fil4 {fill:url(#id4)}
   ]]>
  </style>
  <linearGradient id="id0" gradientUnits="userSpaceOnUse" x1="56.64" y1="38.22" x2="103.99" y2="49.48">
   <stop offset="0" style="stop-opacity:1; stop-color:#D304FE"/>
   <stop offset="1" style="stop-opacity:1; stop-color:#720FFD"/>
  </linearGradient>
  <linearGradient id="id1" gradientUnits="userSpaceOnUse" xlink:href="#id0" x1="31.17" y1="75.79" x2="80.68" y2="87.56">
  </linearGradient>
  <linearGradient id="id2" gradientUnits="userSpaceOnUse" xlink:href="#id0" x1="49.42" y1="50.67" x2="26.49" y2="45.22">
  </linearGradient>
  <linearGradient id="id3" gradientUnits="userSpaceOnUse" xlink:href="#id0" x1="42.77" y1="27" x2="54.39" y2="29.77">
  </linearGradient>
  <linearGradient id="id4" gradientUnits="userSpaceOnUse" x1="69.42" y1="96.72" x2="96.59" y2="86.51">
   <stop offset="0" style="stop-opacity:1; stop-color:#D206FF"/>
   <stop offset="0.741176" style="stop-opacity:1; stop-color:#9F0BFF"/>
   <stop offset="1" style="stop-opacity:1; stop-color:#6C11FF"/>
  </linearGradient>
 </defs>
 <g id="Capa_x0020_1">
  <metadata id="CorelCorpID_0Corel-Layer"/>
  <g id="_2617255824544">
   <g>
    <path class="fil0" d="M47.29 67.31l7.14 11.67 -3.81 15.99c-1.51,6.35 -7.78,10.28 -13.95,8.73l-0.23 -0.06c-6.17,-1.55 -9.98,-8.02 -8.47,-14.37l2.76 -11.62c1.79,-7.53 9.24,-12.16 16.56,-10.34zm-2.22 9.34l-3.93 16.52c-0.27,1.13 -1.4,1.83 -2.5,1.56l-0.13 -0.04c-1.1,-0.27 -1.78,-1.43 -1.51,-2.56l2.92 -12.27c0.56,-2.34 2.87,-3.79 5.15,-3.21zm7.84 -22.55l22.43 5.59c6.21,1.56 10.05,8.08 8.53,14.47l0 0c-1.53,6.4 -7.86,10.38 -14.06,8.78l-15.38 -3.96 -7.14 -11.67 25.15 6.41c1.1,0.28 2.23,-0.42 2.49,-1.55l0.11 -0.47c0.28,-1.13 -0.4,-2.29 -1.51,-2.57l-22.86 -5.62 2.24 -9.41z"/>
    <path class="fil1" d="M59.48 26.25l47.21 11.89 -1.21 5.09c-2.37,9.98 -12.24,16.13 -21.94,13.71l-29.55 -7.37 2.22 -9.38 32.83 8.1c2.44,0.6 4.91,-0.93 5.51,-3.43l-37.22 -9.38 2.15 -9.23z"/>
    <path class="fil2" d="M46.61 62.49l-15.18 -3.91c-4.21,-1.08 -6.42,-7.16 -4.9,-13.55l0 0c1.53,-6.4 6.22,-10.76 10.43,-9.7l15.19 3.84 -2.23 9.38 -15.46 -3.96c-0.75,-0.19 -1.58,0.58 -1.85,1.72l-0.11 0.46c-0.27,1.13 0.12,2.22 0.87,2.41l15.47 3.89 -2.23 9.42z"/>
    <path class="fil3" d="M48 23.35l7.47 1.88 -2.2 9.22 -7.47 -1.88c-2.26,-0.57 -3.66,-2.89 -3.12,-5.16l0.23 -0.97c0.54,-2.27 2.83,-3.66 5.09,-3.09z"/>
   </g>
   <path class="fil4" d="M88.65 71.94l0.11 0c0,8.82 7.04,16.03 15.65,16.03l0 0c-8.61,0 -15.65,7.22 -15.65,16.03l-0.11 0c0,-8.81 -7.04,-16.03 -15.65,-16.03l0 0c8.61,0 15.65,-7.21 15.65,-16.03z"/>
  </g>
 </g>
</svg>
