<?xml version="1.0" encoding="UTF-8"?>
<!DOCTYPE svg PUBLIC "-//W3C//DTD SVG 1.1//EN" "http://www.w3.org/Graphics/SVG/1.1/DTD/svg11.dtd">
<!-- Creator: CorelDRAW (Versión de evaluación) -->
<svg xmlns="http://www.w3.org/2000/svg" xml:space="preserve" width="128px" height="128px" version="1.1" style="shape-rendering:geometricPrecision; text-rendering:geometricPrecision; image-rendering:optimizeQuality; fill-rule:evenodd; clip-rule:evenodd"
viewBox="0 0 128 128"
 xmlns:xlink="http://www.w3.org/1999/xlink"
 xmlns:xodm="http://www.corel.com/coreldraw/odm/2003">
 <defs>
  <style type="text/css">
   <![CDATA[
    .fil1 {fill:#FEFEFE}
    .fil0 {fill:#00AFEF}
   ]]>
  </style>
 </defs>
 <g id="Capa_x0020_1">
  <metadata id="CorelCorpID_0Corel-Layer"/>
  <g id="_2617248172976">
   <rect class="fil0" x="5.29" y="1.84" width="120" height="120" rx="23.37" ry="24.29"/>
   <path class="fil1" d="M85.22 69.49l0.09 0c0,8.12 6.3,14.75 14,14.75l0 0c-7.7,0 -14,6.64 -14,14.76l-0.09 0c0,-8.12 -6.3,-14.76 -14,-14.76l0 0c7.7,0 14,-6.63 14,-14.75z"/>
   <g>
    <path class="fil1" d="M48.23 65.24l6.38 10.73 -3.4 14.72c-1.35,5.84 -6.97,9.46 -12.48,8.03l-0.21 -0.06c-5.52,-1.43 -8.93,-7.38 -7.57,-13.22l2.47 -10.69c1.6,-6.93 8.26,-11.19 14.81,-9.51zm-1.99 8.58l-3.52 15.21c-0.24,1.04 -1.24,1.69 -2.23,1.43l-0.11 -0.03c-0.99,-0.25 -1.6,-1.32 -1.35,-2.36l2.6 -11.29c0.5,-2.15 2.57,-3.48 4.61,-2.96zm7.02 -20.75l20.05 5.15c5.56,1.43 8.99,7.44 7.63,13.32l0 0c-1.36,5.88 -7.03,9.55 -12.57,8.08l-13.76 -3.65 -6.38 -10.73 22.49 5.89c0.99,0.26 1.99,-0.39 2.23,-1.43l0.1 -0.43c0.24,-1.04 -0.36,-2.11 -1.35,-2.36l-20.45 -5.17 2.01 -8.67z"/>
    <path class="fil1" d="M59.13 27.45l42.23 10.94 -1.09 4.69c-2.12,9.18 -10.95,14.83 -19.62,12.61l-26.43 -6.78 1.99 -8.63 29.36 7.45c2.18,0.56 4.39,-0.86 4.92,-3.16l-33.28 -8.63 1.92 -8.49z"/>
    <path class="fil1" d="M47.62 60.8l-13.58 -3.6c-3.76,-1 -5.74,-6.59 -4.38,-12.47l0 0c1.36,-5.89 5.56,-9.9 9.33,-8.92l13.59 3.53 -2 8.63 -13.83 -3.65c-0.66,-0.17 -1.41,0.54 -1.65,1.59l-0.1 0.42c-0.24,1.05 0.11,2.04 0.78,2.22l13.84 3.58 -2 8.67z"/>
    <path class="fil1" d="M48.95 24.81l6.59 1.7 -1.96 8.49 -6.59 -1.71c-2.07,-0.54 -3.37,-2.68 -2.89,-4.77l0.21 -0.9c0.48,-2.08 2.57,-3.35 4.64,-2.81z"/>
   </g>
  </g>
 </g>
</svg>
